<svg width="1133" height="248" viewBox="0 0 1133 248" fill="none" xmlns="http://www.w3.org/2000/svg">
<mask id="mask0_111_587" style="mask-type:alpha" maskUnits="userSpaceOnUse" x="0" y="0" width="1133" height="248">
<rect width="1133" height="248" rx="23" fill="#FFF9F4"/>
</mask>
<g mask="url(#mask0_111_587)">
<g filter="url(#filter0_i_111_587)">
<rect width="1133" height="248" rx="23" fill="#FFF9F4"/>
</g>
<rect y="114.178" width="1133" height="1.22772" fill="#EDEBE6"/>
<rect y="170.653" width="1133" height="1.22772" fill="#EDEBE6"/>
<path d="M0 224.673H1133V225.901H0V224.673Z" fill="#EDEBE6"/>
<g filter="url(#filter1_d_111_587)">
<path d="M-3.96155 23C-3.96155 10.2975 6.3359 0 19.0385 0H1110C1122.7 0 1133 10.2975 1133 23V58.9307H-3.96155V23Z" fill="#EBE0D7"/>
</g>
<g filter="url(#filter2_d_111_587)">
<path d="M514.107 38V22.544H518.619V28.304H523.947V22.544H528.459V38H523.947V32.24H518.619V38H514.107ZM530.813 25.112V21.848H535.685V25.112H530.813ZM531.173 38V29.912H529.517L529.901 26.624H535.685V38H531.173ZM542.289 38.24C541.313 38.24 540.393 38.168 539.529 38.024C538.681 37.896 538.009 37.728 537.513 37.52V34.28C538.073 34.536 538.737 34.736 539.505 34.88C540.289 35.024 540.953 35.096 541.497 35.096C542.073 35.096 542.505 35.08 542.793 35.048C543.097 35.016 543.249 34.88 543.249 34.64C543.249 34.368 542.985 34.16 542.457 34.016C541.929 33.872 541.265 33.664 540.465 33.392C539.425 33.024 538.649 32.592 538.137 32.096C537.625 31.6 537.369 30.88 537.369 29.936C537.369 28.8 537.817 27.928 538.713 27.32C539.609 26.696 541.017 26.384 542.937 26.384C543.673 26.384 544.433 26.44 545.217 26.552C546.001 26.664 546.617 26.792 547.065 26.936V30.104C546.585 29.896 546.057 29.744 545.481 29.648C544.921 29.552 544.409 29.504 543.945 29.504C543.433 29.504 542.977 29.528 542.577 29.576C542.177 29.624 541.977 29.76 541.977 29.984C541.977 30.24 542.201 30.424 542.649 30.536C543.113 30.648 543.729 30.824 544.497 31.064C545.361 31.32 546.033 31.6 546.513 31.904C547.009 32.208 547.353 32.576 547.545 33.008C547.753 33.44 547.857 33.976 547.857 34.616C547.857 35.768 547.385 36.664 546.441 37.304C545.513 37.928 544.129 38.24 542.289 38.24ZM554.065 38.24C552.545 38.24 551.441 37.856 550.753 37.088C550.065 36.32 549.721 35.28 549.721 33.968V29.96H548.233V26.624H549.721V24.296L554.233 23.216V26.624H556.849L556.681 29.96H554.233V33.632C554.233 34.112 554.353 34.456 554.593 34.664C554.833 34.856 555.201 34.952 555.697 34.952C556.161 34.952 556.633 34.872 557.113 34.712V37.712C556.265 38.064 555.249 38.24 554.065 38.24ZM562.51 25.472L564.622 20.528H568.126L565.822 25.472H562.51ZM564.478 38.24C562.206 38.24 560.526 37.736 559.438 36.728C558.366 35.72 557.83 34.248 557.83 32.312C557.83 30.392 558.374 28.928 559.462 27.92C560.55 26.896 562.222 26.384 564.478 26.384C566.75 26.384 568.43 26.896 569.518 27.92C570.622 28.928 571.174 30.392 571.174 32.312C571.174 34.248 570.63 35.72 569.542 36.728C568.454 37.736 566.766 38.24 564.478 38.24ZM564.478 34.952C565.214 34.952 565.742 34.744 566.062 34.328C566.398 33.912 566.566 33.24 566.566 32.312C566.566 31.4 566.398 30.736 566.062 30.32C565.742 29.888 565.214 29.672 564.478 29.672C563.758 29.672 563.238 29.888 562.918 30.32C562.598 30.736 562.438 31.4 562.438 32.312C562.438 33.24 562.598 33.912 562.918 34.328C563.238 34.744 563.758 34.952 564.478 34.952ZM572.865 38V26.624H577.209L577.329 27.536C577.793 27.264 578.385 27.016 579.105 26.792C579.825 26.568 580.553 26.432 581.289 26.384V29.744C580.873 29.776 580.417 29.832 579.921 29.912C579.441 29.992 578.969 30.096 578.505 30.224C578.057 30.336 577.681 30.464 577.377 30.608V38H572.865ZM583.36 25.112V21.848H588.232V25.112H583.36ZM583.72 38V29.912H582.064L582.448 26.624H588.232V38H583.72ZM596.612 38.24C594.548 38.24 592.916 37.752 591.716 36.776C590.516 35.784 589.916 34.296 589.916 32.312C589.916 30.968 590.196 29.856 590.756 28.976C591.316 28.096 592.1 27.448 593.108 27.032C594.116 26.6 595.292 26.384 596.636 26.384C597.484 26.384 598.244 26.448 598.916 26.576C599.588 26.688 600.228 26.888 600.836 27.176V30.344C599.892 29.896 598.82 29.672 597.62 29.672C596.596 29.672 595.82 29.864 595.292 30.248C594.78 30.632 594.524 31.32 594.524 32.312C594.524 33.24 594.772 33.912 595.268 34.328C595.764 34.744 596.548 34.952 597.62 34.952C598.196 34.952 598.756 34.888 599.3 34.76C599.844 34.616 600.364 34.416 600.86 34.16V37.472C600.252 37.744 599.596 37.936 598.892 38.048C598.204 38.176 597.444 38.24 596.612 38.24ZM608.705 38.24C606.433 38.24 604.753 37.736 603.665 36.728C602.593 35.72 602.057 34.248 602.057 32.312C602.057 30.392 602.601 28.928 603.689 27.92C604.777 26.896 606.449 26.384 608.705 26.384C610.977 26.384 612.657 26.896 613.745 27.92C614.849 28.928 615.401 30.392 615.401 32.312C615.401 34.248 614.857 35.72 613.769 36.728C612.681 37.736 610.993 38.24 608.705 38.24ZM608.705 34.952C609.441 34.952 609.969 34.744 610.289 34.328C610.625 33.912 610.793 33.24 610.793 32.312C610.793 31.4 610.625 30.736 610.289 30.32C609.969 29.888 609.441 29.672 608.705 29.672C607.985 29.672 607.465 29.888 607.145 30.32C606.825 30.736 606.665 31.4 606.665 32.312C606.665 33.24 606.825 33.912 607.145 34.328C607.465 34.744 607.985 34.952 608.705 34.952Z" fill="black"/>
</g>
<path d="M272.965 96.1584V80.7024H274.285V96.1584H272.965ZM277.887 96.1584V84.7824H279.039L279.159 86.1744C279.735 85.6944 280.391 85.3024 281.127 84.9984C281.863 84.6944 282.743 84.5424 283.767 84.5424C285.191 84.5424 286.223 84.8704 286.863 85.5264C287.503 86.1824 287.823 87.2224 287.823 88.6464V96.1584H286.503V88.6704C286.503 87.5504 286.271 86.7664 285.807 86.3184C285.359 85.8704 284.495 85.6464 283.215 85.6464C282.415 85.6464 281.671 85.7984 280.983 86.1024C280.311 86.4064 279.719 86.8064 279.207 87.3024V96.1584H277.887ZM294.643 96.1584L290.203 84.7824H291.571L295.435 95.0544L299.323 84.7824H300.667L296.227 96.1584H294.643ZM307.872 96.3984C305.824 96.3984 304.328 95.9184 303.384 94.9584C302.456 93.9824 301.992 92.4624 301.992 90.3984C301.992 88.5744 302.4 87.1424 303.216 86.1024C304.048 85.0624 305.392 84.5424 307.248 84.5424C308.352 84.5424 309.248 84.7504 309.936 85.1664C310.624 85.5664 311.128 86.1104 311.448 86.7984C311.784 87.4864 311.952 88.2544 311.952 89.1024V91.1664H303.312C303.376 92.6384 303.76 93.7024 304.464 94.3584C305.168 94.9984 306.392 95.3184 308.136 95.3184C309.192 95.3184 310.216 95.1184 311.208 94.7184V95.7984C310.232 96.1984 309.12 96.3984 307.872 96.3984ZM303.312 90.1344H310.752V89.0544C310.752 87.9984 310.48 87.1664 309.936 86.5584C309.392 85.9504 308.504 85.6464 307.272 85.6464C305.768 85.6464 304.728 86.0384 304.152 86.8224C303.592 87.5904 303.312 88.6944 303.312 90.1344ZM318.535 96.3984C317.863 96.3984 317.215 96.3504 316.591 96.2544C315.983 96.1744 315.463 96.0624 315.031 95.9184V94.7424C315.559 94.9184 316.103 95.0544 316.663 95.1504C317.223 95.2304 317.791 95.2704 318.367 95.2704C319.487 95.2704 320.287 95.1264 320.767 94.8384C321.247 94.5344 321.487 94.0144 321.487 93.2784C321.487 92.7664 321.367 92.3824 321.127 92.1264C320.903 91.8544 320.543 91.6224 320.047 91.4304C319.551 91.2384 318.919 91.0144 318.151 90.7584C317.511 90.5344 316.927 90.3184 316.399 90.1104C315.887 89.8864 315.479 89.5824 315.175 89.1984C314.871 88.7984 314.719 88.2464 314.719 87.5424C314.719 86.5504 315.047 85.8064 315.703 85.3104C316.359 84.7984 317.423 84.5424 318.895 84.5424C319.471 84.5424 320.015 84.5824 320.527 84.6624C321.055 84.7264 321.519 84.8224 321.919 84.9504V86.1264C320.991 85.8384 320.047 85.6944 319.087 85.6944C317.951 85.6944 317.151 85.8384 316.687 86.1264C316.239 86.3984 316.015 86.8624 316.015 87.5184C316.015 87.9664 316.111 88.3184 316.303 88.5744C316.511 88.8144 316.831 89.0224 317.263 89.1984C317.711 89.3744 318.287 89.5744 318.991 89.7984C319.839 90.0704 320.543 90.3424 321.103 90.6144C321.679 90.8864 322.103 91.2304 322.375 91.6464C322.663 92.0464 322.807 92.5904 322.807 93.2784C322.807 94.3984 322.423 95.1984 321.655 95.6784C320.903 96.1584 319.863 96.3984 318.535 96.3984ZM329.542 96.3984C328.534 96.3984 327.758 96.1184 327.214 95.5584C326.67 94.9984 326.398 94.2144 326.398 93.2064V85.8864H324.622V84.7824H326.398V81.8064L327.718 81.3744V84.7824H331.006L330.934 85.8864H327.718V93.1584C327.718 93.8944 327.886 94.4384 328.222 94.7904C328.574 95.1424 329.142 95.3184 329.926 95.3184C330.134 95.3184 330.35 95.3024 330.574 95.2704C330.814 95.2224 331.07 95.1504 331.342 95.0544V96.1104C330.814 96.3024 330.214 96.3984 329.542 96.3984ZM334.755 81.8304V80.3904H336.267V81.8304H334.755ZM334.923 96.1584V85.8864H333.147L333.291 84.7824H336.243V96.1584H334.923ZM339.855 96.1584V84.7824H341.007L341.127 86.1744C341.751 85.6624 342.415 85.2624 343.119 84.9744C343.839 84.6864 344.591 84.5424 345.375 84.5424C346.255 84.5424 346.935 84.6864 347.415 84.9744C347.895 85.2624 348.247 85.6624 348.471 86.1744C349.015 85.7104 349.647 85.3264 350.367 85.0224C351.087 84.7024 351.951 84.5424 352.959 84.5424C354.239 84.5424 355.191 84.8704 355.815 85.5264C356.455 86.1664 356.775 87.1744 356.775 88.5504V96.1584H355.479V88.6704C355.479 87.5344 355.231 86.7504 354.735 86.3184C354.255 85.8704 353.495 85.6464 352.455 85.6464C351.735 85.6464 351.055 85.7744 350.415 86.0304C349.775 86.2704 349.231 86.6304 348.783 87.1104C348.831 87.3344 348.871 87.5984 348.903 87.9024C348.935 88.1904 348.951 88.4624 348.951 88.7184V96.1584H347.679V88.7424C347.679 87.6544 347.495 86.8704 347.127 86.3904C346.759 85.8944 346.047 85.6464 344.991 85.6464C344.287 85.6464 343.599 85.8064 342.927 86.1264C342.255 86.4464 341.663 86.8384 341.151 87.3024V96.1584H339.855ZM365.412 96.3984C363.364 96.3984 361.868 95.9184 360.924 94.9584C359.996 93.9824 359.532 92.4624 359.532 90.3984C359.532 88.5744 359.94 87.1424 360.756 86.1024C361.588 85.0624 362.932 84.5424 364.788 84.5424C365.892 84.5424 366.788 84.7504 367.476 85.1664C368.164 85.5664 368.668 86.1104 368.988 86.7984C369.324 87.4864 369.492 88.2544 369.492 89.1024V91.1664H360.852C360.916 92.6384 361.3 93.7024 362.004 94.3584C362.708 94.9984 363.932 95.3184 365.676 95.3184C366.732 95.3184 367.756 95.1184 368.748 94.7184V95.7984C367.772 96.1984 366.66 96.3984 365.412 96.3984ZM360.852 90.1344H368.292V89.0544C368.292 87.9984 368.02 87.1664 367.476 86.5584C366.932 85.9504 366.044 85.6464 364.812 85.6464C363.308 85.6464 362.268 86.0384 361.692 86.8224C361.132 87.5904 360.852 88.6944 360.852 90.1344ZM372.855 96.1584V84.7824H374.007L374.127 86.1744C374.703 85.6944 375.359 85.3024 376.095 84.9984C376.831 84.6944 377.711 84.5424 378.735 84.5424C380.159 84.5424 381.191 84.8704 381.831 85.5264C382.471 86.1824 382.791 87.2224 382.791 88.6464V96.1584H381.471V88.6704C381.471 87.5504 381.239 86.7664 380.775 86.3184C380.327 85.8704 379.463 85.6464 378.183 85.6464C377.383 85.6464 376.639 85.7984 375.951 86.1024C375.279 86.4064 374.687 86.8064 374.175 87.3024V96.1584H372.855ZM390.222 96.3984C389.214 96.3984 388.438 96.1184 387.894 95.5584C387.35 94.9984 387.078 94.2144 387.078 93.2064V85.8864H385.302V84.7824H387.078V81.8064L388.398 81.3744V84.7824H391.686L391.614 85.8864H388.398V93.1584C388.398 93.8944 388.566 94.4384 388.902 94.7904C389.254 95.1424 389.822 95.3184 390.606 95.3184C390.814 95.3184 391.03 95.3024 391.254 95.2704C391.494 95.2224 391.75 95.1504 392.022 95.0544V96.1104C391.494 96.3024 390.894 96.3984 390.222 96.3984ZM399.479 96.3984C397.559 96.3984 396.175 95.8944 395.327 94.8864C394.479 93.8784 394.055 92.4064 394.055 90.4704C394.055 88.5504 394.487 87.0864 395.351 86.0784C396.215 85.0544 397.591 84.5424 399.479 84.5424C401.383 84.5424 402.767 85.0544 403.631 86.0784C404.495 87.0864 404.927 88.5504 404.927 90.4704C404.927 92.4064 404.495 93.8784 403.631 94.8864C402.783 95.8944 401.399 96.3984 399.479 96.3984ZM399.479 95.2704C400.999 95.2704 402.063 94.8784 402.671 94.0944C403.295 93.3104 403.607 92.1024 403.607 90.4704C403.607 88.8544 403.295 87.6544 402.671 86.8704C402.047 86.0864 400.983 85.6944 399.479 85.6944C397.975 85.6944 396.911 86.0864 396.287 86.8704C395.663 87.6544 395.351 88.8544 395.351 90.4704C395.351 92.1024 395.663 93.3104 396.287 94.0944C396.911 94.8784 397.975 95.2704 399.479 95.2704Z" fill="black"/>
<path d="M834.637 95.1584V79.7024H841.093C842.709 79.7024 843.877 80.1184 844.597 80.9504C845.333 81.7824 845.701 82.9024 845.701 84.3104C845.701 85.4944 845.413 86.4624 844.837 87.2144C844.277 87.9664 843.429 88.4544 842.293 88.6784C842.661 88.8544 842.925 89.0704 843.085 89.3264C843.261 89.5824 843.445 89.9184 843.637 90.3344L845.701 95.1584H844.357L842.317 90.5024C842.157 90.1344 841.981 89.8384 841.789 89.6144C841.597 89.3904 841.333 89.2304 840.997 89.1344C840.661 89.0224 840.189 88.9664 839.581 88.9664H835.957V95.1584H834.637ZM835.957 87.9104H840.709C841.845 87.9104 842.741 87.6304 843.397 87.0704C844.053 86.4944 844.381 85.5744 844.381 84.3104C844.381 81.9584 843.253 80.7824 840.997 80.7824H835.957V87.9104ZM853.112 97.2224V95.3984C851.304 95.3824 849.848 95.1584 848.744 94.7264V93.5504C850.04 94.0304 851.496 94.2704 853.112 94.2704V87.7904C853.096 87.7904 853.08 87.7904 853.064 87.7904C853.064 87.7744 853.064 87.7664 853.064 87.7664C851.32 87.3664 850.096 86.8464 849.392 86.2064C848.704 85.5664 848.36 84.7024 848.36 83.6144C848.36 82.4624 848.744 81.5184 849.512 80.7824C850.296 80.0304 851.496 79.5984 853.112 79.4864V77.6384H854.216V79.4624C855.016 79.4784 855.76 79.5504 856.448 79.6784C857.152 79.7904 857.688 79.9104 858.056 80.0384V81.2144C856.904 80.8144 855.624 80.6144 854.216 80.6144V86.8544C855.432 87.1424 856.384 87.4944 857.072 87.9104C857.76 88.3104 858.248 88.7824 858.536 89.3264C858.84 89.8704 858.992 90.5024 858.992 91.2224C858.992 92.4864 858.584 93.4624 857.768 94.1504C856.968 94.8384 855.784 95.2384 854.216 95.3504V97.2224H853.112ZM853.112 86.5904V80.6624C851.992 80.7744 851.136 81.0704 850.544 81.5504C849.952 82.0144 849.656 82.7024 849.656 83.6144C849.656 84.1424 849.76 84.5904 849.968 84.9584C850.176 85.3104 850.528 85.6144 851.024 85.8704C851.536 86.1104 852.232 86.3504 853.112 86.5904ZM854.216 94.2464C855.352 94.1504 856.216 93.8624 856.808 93.3824C857.4 92.9024 857.696 92.1824 857.696 91.2224C857.696 90.3584 857.424 89.6944 856.88 89.2304C856.336 88.7664 855.448 88.3744 854.216 88.0544V94.2464ZM906.588 95.3984C904.812 95.3984 903.46 94.9424 902.532 94.0304C901.62 93.1184 901.164 91.6464 901.164 89.6144V85.7984C901.164 84.5184 901.404 83.4064 901.884 82.4624C902.364 81.5024 903.044 80.7664 903.924 80.2544C904.82 79.7264 905.876 79.4624 907.092 79.4624C907.812 79.4624 908.452 79.5104 909.012 79.6064C909.588 79.6864 910.1 79.7984 910.548 79.9424V81.0944C910.1 80.9344 909.596 80.8144 909.036 80.7344C908.476 80.6544 907.844 80.6144 907.14 80.6144C905.54 80.6144 904.356 81.0784 903.588 82.0064C902.82 82.9344 902.436 84.1264 902.436 85.5824V86.9744C903.124 86.4624 903.868 86.0944 904.668 85.8704C905.468 85.6304 906.188 85.5104 906.828 85.5104C908.556 85.5104 909.844 85.9344 910.692 86.7824C911.556 87.6144 911.988 88.8304 911.988 90.4304C911.988 91.9344 911.532 93.1424 910.62 94.0544C909.724 94.9504 908.38 95.3984 906.588 95.3984ZM906.564 94.3184C907.972 94.3184 909.02 93.9664 909.708 93.2624C910.396 92.5584 910.74 91.6224 910.74 90.4544C910.74 89.6544 910.62 88.9664 910.38 88.3904C910.14 87.7984 909.724 87.3504 909.132 87.0464C908.556 86.7264 907.748 86.5664 906.708 86.5664C905.924 86.5664 905.156 86.7104 904.404 86.9984C903.652 87.2704 902.996 87.6144 902.436 88.0304V90.1184C902.436 92.9184 903.812 94.3184 906.564 94.3184ZM920.978 95.3984C919.49 95.3984 918.274 95.0864 917.33 94.4624C916.402 93.8224 915.714 92.9264 915.266 91.7744C914.834 90.6224 914.618 89.2704 914.618 87.7184C914.618 85.9904 914.818 84.5104 915.218 83.2784C915.618 82.0464 916.282 81.1024 917.21 80.4464C918.138 79.7904 919.394 79.4624 920.978 79.4624C922.562 79.4624 923.81 79.7904 924.722 80.4464C925.65 81.1024 926.314 82.0464 926.714 83.2784C927.114 84.5104 927.314 85.9904 927.314 87.7184C927.314 89.2704 927.098 90.6224 926.666 91.7744C926.234 92.9264 925.546 93.8224 924.602 94.4624C923.674 95.0864 922.466 95.3984 920.978 95.3984ZM920.978 94.2704C922.21 94.2704 923.194 93.9904 923.93 93.4304C924.666 92.8544 925.194 92.0784 925.514 91.1024C925.85 90.1104 926.018 88.9824 926.018 87.7184C926.018 86.1984 925.858 84.9104 925.538 83.8544C925.234 82.7984 924.714 81.9984 923.978 81.4544C923.242 80.8944 922.242 80.6144 920.978 80.6144C919.698 80.6144 918.69 80.8944 917.954 81.4544C917.218 81.9984 916.69 82.7984 916.37 83.8544C916.066 84.9104 915.914 86.1984 915.914 87.7184C915.914 88.9824 916.074 90.1104 916.394 91.1024C916.73 92.0784 917.266 92.8544 918.002 93.4304C918.754 93.9904 919.746 94.2704 920.978 94.2704ZM936.306 95.3984C934.818 95.3984 933.602 95.0864 932.658 94.4624C931.73 93.8224 931.042 92.9264 930.594 91.7744C930.162 90.6224 929.946 89.2704 929.946 87.7184C929.946 85.9904 930.146 84.5104 930.546 83.2784C930.946 82.0464 931.61 81.1024 932.538 80.4464C933.466 79.7904 934.722 79.4624 936.306 79.4624C937.89 79.4624 939.138 79.7904 940.05 80.4464C940.978 81.1024 941.642 82.0464 942.042 83.2784C942.442 84.5104 942.642 85.9904 942.642 87.7184C942.642 89.2704 942.426 90.6224 941.994 91.7744C941.562 92.9264 940.874 93.8224 939.93 94.4624C939.002 95.0864 937.794 95.3984 936.306 95.3984ZM936.306 94.2704C937.538 94.2704 938.522 93.9904 939.258 93.4304C939.994 92.8544 940.522 92.0784 940.842 91.1024C941.178 90.1104 941.346 88.9824 941.346 87.7184C941.346 86.1984 941.186 84.9104 940.866 83.8544C940.562 82.7984 940.042 81.9984 939.306 81.4544C938.57 80.8944 937.57 80.6144 936.306 80.6144C935.026 80.6144 934.018 80.8944 933.282 81.4544C932.546 81.9984 932.018 82.7984 931.698 83.8544C931.394 84.9104 931.242 86.1984 931.242 87.7184C931.242 88.9824 931.402 90.1104 931.722 91.1024C932.058 92.0784 932.594 92.8544 933.33 93.4304C934.082 93.9904 935.074 94.2704 936.306 94.2704ZM943.703 98.0384L944.327 94.0784H945.599L944.687 98.0384H943.703ZM954.61 95.3984C953.122 95.3984 951.906 95.0864 950.962 94.4624C950.034 93.8224 949.346 92.9264 948.898 91.7744C948.466 90.6224 948.25 89.2704 948.25 87.7184C948.25 85.9904 948.45 84.5104 948.85 83.2784C949.25 82.0464 949.914 81.1024 950.842 80.4464C951.77 79.7904 953.026 79.4624 954.61 79.4624C956.194 79.4624 957.442 79.7904 958.354 80.4464C959.282 81.1024 959.946 82.0464 960.346 83.2784C960.746 84.5104 960.946 85.9904 960.946 87.7184C960.946 89.2704 960.73 90.6224 960.298 91.7744C959.866 92.9264 959.178 93.8224 958.234 94.4624C957.306 95.0864 956.098 95.3984 954.61 95.3984ZM954.61 94.2704C955.842 94.2704 956.826 93.9904 957.562 93.4304C958.298 92.8544 958.826 92.0784 959.146 91.1024C959.482 90.1104 959.65 88.9824 959.65 87.7184C959.65 86.1984 959.49 84.9104 959.17 83.8544C958.866 82.7984 958.346 81.9984 957.61 81.4544C956.874 80.8944 955.874 80.6144 954.61 80.6144C953.33 80.6144 952.322 80.8944 951.586 81.4544C950.85 81.9984 950.322 82.7984 950.002 83.8544C949.698 84.9104 949.546 86.1984 949.546 87.7184C949.546 88.9824 949.706 90.1104 950.026 91.1024C950.362 92.0784 950.898 92.8544 951.634 93.4304C952.386 93.9904 953.378 94.2704 954.61 94.2704ZM969.938 95.3984C968.45 95.3984 967.234 95.0864 966.29 94.4624C965.362 93.8224 964.674 92.9264 964.226 91.7744C963.794 90.6224 963.578 89.2704 963.578 87.7184C963.578 85.9904 963.778 84.5104 964.178 83.2784C964.578 82.0464 965.242 81.1024 966.17 80.4464C967.098 79.7904 968.354 79.4624 969.938 79.4624C971.522 79.4624 972.77 79.7904 973.682 80.4464C974.61 81.1024 975.274 82.0464 975.674 83.2784C976.074 84.5104 976.274 85.9904 976.274 87.7184C976.274 89.2704 976.058 90.6224 975.626 91.7744C975.194 92.9264 974.506 93.8224 973.562 94.4624C972.634 95.0864 971.426 95.3984 969.938 95.3984ZM969.938 94.2704C971.17 94.2704 972.154 93.9904 972.89 93.4304C973.626 92.8544 974.154 92.0784 974.474 91.1024C974.81 90.1104 974.978 88.9824 974.978 87.7184C974.978 86.1984 974.818 84.9104 974.498 83.8544C974.194 82.7984 973.674 81.9984 972.938 81.4544C972.202 80.8944 971.202 80.6144 969.938 80.6144C968.658 80.6144 967.65 80.8944 966.914 81.4544C966.178 81.9984 965.65 82.7984 965.33 83.8544C965.026 84.9104 964.874 86.1984 964.874 87.7184C964.874 88.9824 965.034 90.1104 965.354 91.1024C965.69 92.0784 966.226 92.8544 966.962 93.4304C967.714 93.9904 968.706 94.2704 969.938 94.2704Z" fill="#FF6666"/>
<path d="M306.82 205.426V189.97H308.068L317.644 203.458V189.97H318.964V205.426H317.692L308.14 191.962V205.426H306.82ZM327.97 205.666C325.922 205.666 324.426 205.186 323.482 204.226C322.554 203.25 322.09 201.73 322.09 199.666C322.09 197.842 322.498 196.41 323.314 195.37C324.146 194.33 325.49 193.81 327.346 193.81C328.45 193.81 329.346 194.018 330.034 194.434C330.722 194.834 331.226 195.378 331.546 196.066C331.882 196.754 332.05 197.522 332.05 198.37V200.434H323.41C323.474 201.906 323.858 202.97 324.562 203.626C325.266 204.266 326.49 204.586 328.234 204.586C329.29 204.586 330.314 204.386 331.306 203.986V205.066C330.33 205.466 329.218 205.666 327.97 205.666ZM323.41 199.402H330.85V198.322C330.85 197.266 330.578 196.434 330.034 195.826C329.49 195.218 328.602 194.914 327.37 194.914C325.866 194.914 324.826 195.306 324.25 196.09C323.69 196.858 323.41 197.962 323.41 199.402ZM339.374 205.666C338.366 205.666 337.59 205.386 337.046 204.826C336.502 204.266 336.23 203.482 336.23 202.474V195.154H334.454V194.05H336.23V191.074L337.55 190.642V194.05H340.838L340.766 195.154H337.55V202.426C337.55 203.162 337.718 203.706 338.054 204.058C338.406 204.41 338.974 204.586 339.758 204.586C339.966 204.586 340.182 204.57 340.406 204.538C340.646 204.49 340.902 204.418 341.174 204.322V205.378C340.646 205.57 340.046 205.666 339.374 205.666ZM344.479 205.426V195.154H342.727V194.05H344.479V192.394C344.479 191.258 344.839 190.37 345.559 189.73C346.295 189.074 347.247 188.746 348.415 188.746C348.927 188.746 349.391 188.786 349.807 188.866C350.239 188.93 350.607 189.018 350.911 189.13H351.943V205.426H350.623V195.154H345.799V205.426H344.479ZM345.799 194.05H350.623V190.186C350.095 189.962 349.471 189.85 348.751 189.85C346.783 189.85 345.799 190.69 345.799 192.37V194.05ZM356.915 191.098V189.658H358.427V191.098H356.915ZM357.083 205.426V195.154H355.307L355.451 194.05H358.403V205.426H357.083ZM361.295 205.426L365.591 199.642L361.415 194.05H362.855L366.287 198.73L369.743 194.05H371.159L367.055 199.642L371.327 205.426H369.887L366.287 200.53L362.711 205.426H361.295Z" fill="black"/>
<path d="M835.574 204.426V188.97H842.03C843.646 188.97 844.814 189.386 845.534 190.218C846.27 191.05 846.638 192.17 846.638 193.578C846.638 194.762 846.35 195.73 845.774 196.482C845.214 197.234 844.366 197.722 843.23 197.946C843.598 198.122 843.862 198.338 844.022 198.594C844.198 198.85 844.382 199.186 844.574 199.602L846.638 204.426H845.294L843.254 199.77C843.094 199.402 842.918 199.106 842.726 198.882C842.534 198.658 842.27 198.498 841.934 198.402C841.598 198.29 841.126 198.234 840.518 198.234H836.894V204.426H835.574ZM836.894 197.178H841.646C842.782 197.178 843.678 196.898 844.334 196.338C844.99 195.762 845.318 194.842 845.318 193.578C845.318 191.226 844.19 190.05 841.934 190.05H836.894V197.178ZM854.049 206.49V204.666C852.241 204.65 850.785 204.426 849.681 203.994V202.818C850.977 203.298 852.433 203.538 854.049 203.538V197.058C854.033 197.058 854.017 197.058 854.001 197.058C854.001 197.042 854.001 197.034 854.001 197.034C852.257 196.634 851.033 196.114 850.329 195.474C849.641 194.834 849.297 193.97 849.297 192.882C849.297 191.73 849.681 190.786 850.449 190.05C851.233 189.298 852.433 188.866 854.049 188.754V186.906H855.153V188.73C855.953 188.746 856.697 188.818 857.385 188.946C858.089 189.058 858.625 189.178 858.993 189.306V190.482C857.841 190.082 856.561 189.882 855.153 189.882V196.122C856.369 196.41 857.321 196.762 858.009 197.178C858.697 197.578 859.185 198.05 859.473 198.594C859.777 199.138 859.929 199.77 859.929 200.49C859.929 201.754 859.521 202.73 858.705 203.418C857.905 204.106 856.721 204.506 855.153 204.618V206.49H854.049ZM854.049 195.858V189.93C852.929 190.042 852.073 190.338 851.481 190.818C850.889 191.282 850.593 191.97 850.593 192.882C850.593 193.41 850.697 193.858 850.905 194.226C851.113 194.578 851.465 194.882 851.961 195.138C852.473 195.378 853.169 195.618 854.049 195.858ZM855.153 203.514C856.289 203.418 857.153 203.13 857.745 202.65C858.337 202.17 858.633 201.45 858.633 200.49C858.633 199.626 858.361 198.962 857.817 198.498C857.273 198.034 856.385 197.642 855.153 197.322V203.514ZM922.959 204.666C922.239 204.666 921.511 204.602 920.775 204.474C920.055 204.362 919.479 204.226 919.047 204.066V202.89C919.639 203.098 920.239 203.258 920.847 203.37C921.471 203.482 922.135 203.538 922.839 203.538C924.327 203.538 925.431 203.282 926.151 202.77C926.887 202.242 927.255 201.402 927.255 200.25C927.255 199.162 926.903 198.37 926.199 197.874C925.511 197.362 924.551 197.106 923.319 197.106H921.207L921.351 196.074H923.127C924.407 196.074 925.351 195.786 925.959 195.21C926.583 194.634 926.895 193.834 926.895 192.81C926.895 191.818 926.575 191.082 925.935 190.602C925.311 190.122 924.311 189.882 922.935 189.882C922.295 189.882 921.663 189.946 921.039 190.074C920.415 190.186 919.847 190.338 919.335 190.53V189.354C919.751 189.178 920.303 189.034 920.991 188.922C921.679 188.794 922.367 188.73 923.055 188.73C924.847 188.73 926.151 189.114 926.967 189.882C927.783 190.634 928.191 191.61 928.191 192.81C928.191 193.61 927.975 194.378 927.543 195.114C927.111 195.834 926.399 196.314 925.407 196.554C926.527 196.778 927.327 197.234 927.807 197.922C928.303 198.61 928.551 199.386 928.551 200.25C928.551 201.722 928.055 202.826 927.063 203.562C926.071 204.298 924.703 204.666 922.959 204.666ZM936.132 204.666C935.412 204.666 934.756 204.626 934.164 204.546C933.572 204.466 933.06 204.354 932.628 204.21V203.034C933.524 203.37 934.676 203.538 936.084 203.538C937.156 203.538 938.036 203.322 938.724 202.89C939.412 202.458 939.916 201.874 940.236 201.138C940.572 200.386 940.74 199.53 940.74 198.57V197.226C940.052 197.738 939.324 198.114 938.556 198.354C937.804 198.578 937.076 198.69 936.372 198.69C934.644 198.69 933.348 198.274 932.484 197.442C931.62 196.594 931.188 195.37 931.188 193.77C931.188 192.266 931.644 191.05 932.556 190.122C933.468 189.194 934.828 188.73 936.636 188.73C938.412 188.73 939.748 189.186 940.644 190.098C941.556 191.01 942.012 192.49 942.012 194.538V198.33C942.012 199.61 941.772 200.73 941.292 201.69C940.828 202.634 940.156 203.37 939.276 203.898C938.396 204.41 937.348 204.666 936.132 204.666ZM936.492 197.634C937.324 197.634 938.1 197.498 938.82 197.226C939.54 196.954 940.18 196.602 940.74 196.17V194.01C940.74 191.21 939.38 189.81 936.66 189.81C935.236 189.81 934.164 190.17 933.444 190.89C932.74 191.61 932.388 192.562 932.388 193.746C932.388 194.946 932.684 195.898 933.276 196.602C933.868 197.29 934.94 197.634 936.492 197.634ZM944.641 207.306L945.265 203.346H946.537L945.625 207.306H944.641ZM954.132 204.666C953.412 204.666 952.756 204.626 952.164 204.546C951.572 204.466 951.06 204.354 950.628 204.21V203.034C951.524 203.37 952.676 203.538 954.084 203.538C955.156 203.538 956.036 203.322 956.724 202.89C957.412 202.458 957.916 201.874 958.236 201.138C958.572 200.386 958.74 199.53 958.74 198.57V197.226C958.052 197.738 957.324 198.114 956.556 198.354C955.804 198.578 955.076 198.69 954.372 198.69C952.644 198.69 951.348 198.274 950.484 197.442C949.62 196.594 949.188 195.37 949.188 193.77C949.188 192.266 949.644 191.05 950.556 190.122C951.468 189.194 952.828 188.73 954.636 188.73C956.412 188.73 957.748 189.186 958.644 190.098C959.556 191.01 960.012 192.49 960.012 194.538V198.33C960.012 199.61 959.772 200.73 959.292 201.69C958.828 202.634 958.156 203.37 957.276 203.898C956.396 204.41 955.348 204.666 954.132 204.666ZM954.492 197.634C955.324 197.634 956.1 197.498 956.82 197.226C957.54 196.954 958.18 196.602 958.74 196.17V194.01C958.74 191.21 957.38 189.81 954.66 189.81C953.236 189.81 952.164 190.17 951.444 190.89C950.74 191.61 950.388 192.562 950.388 193.746C950.388 194.946 950.684 195.898 951.276 196.602C951.868 197.29 952.94 197.634 954.492 197.634ZM969.001 204.666C967.513 204.666 966.297 204.354 965.353 203.73C964.425 203.09 963.737 202.194 963.289 201.042C962.857 199.89 962.641 198.538 962.641 196.986C962.641 195.258 962.841 193.778 963.241 192.546C963.641 191.314 964.305 190.37 965.233 189.714C966.161 189.058 967.417 188.73 969.001 188.73C970.585 188.73 971.833 189.058 972.745 189.714C973.673 190.37 974.337 191.314 974.737 192.546C975.137 193.778 975.337 195.258 975.337 196.986C975.337 198.538 975.121 199.89 974.689 201.042C974.257 202.194 973.569 203.09 972.625 203.73C971.697 204.354 970.489 204.666 969.001 204.666ZM969.001 203.538C970.233 203.538 971.217 203.258 971.953 202.698C972.689 202.122 973.217 201.346 973.537 200.37C973.873 199.378 974.041 198.25 974.041 196.986C974.041 195.466 973.881 194.178 973.561 193.122C973.257 192.066 972.737 191.266 972.001 190.722C971.265 190.162 970.265 189.882 969.001 189.882C967.721 189.882 966.713 190.162 965.977 190.722C965.241 191.266 964.713 192.066 964.393 193.122C964.089 194.178 963.937 195.466 963.937 196.986C963.937 198.25 964.097 199.378 964.417 200.37C964.753 201.346 965.289 202.122 966.025 202.698C966.777 203.258 967.769 203.538 969.001 203.538Z" fill="#FF6666"/>
<path d="M287.191 151.406V135.95H288.511V143.15H297.391V135.95H298.711V151.406H297.391V144.206H288.511V151.406H287.191ZM307.252 151.646C305.332 151.646 303.948 151.142 303.1 150.134C302.252 149.126 301.828 147.654 301.828 145.718C301.828 143.798 302.26 142.334 303.124 141.326C303.988 140.302 305.364 139.79 307.252 139.79C309.156 139.79 310.54 140.302 311.404 141.326C312.268 142.334 312.7 143.798 312.7 145.718C312.7 147.654 312.268 149.126 311.404 150.134C310.556 151.142 309.172 151.646 307.252 151.646ZM307.252 150.518C308.772 150.518 309.836 150.126 310.444 149.342C311.068 148.558 311.38 147.35 311.38 145.718C311.38 144.102 311.068 142.902 310.444 142.118C309.82 141.334 308.756 140.942 307.252 140.942C305.748 140.942 304.684 141.334 304.06 142.118C303.436 142.902 303.124 144.102 303.124 145.718C303.124 147.35 303.436 148.558 304.06 149.342C304.684 150.126 305.748 150.518 307.252 150.518ZM315.832 151.406V140.03H316.984L317.128 141.614C317.72 141.198 318.392 140.83 319.144 140.51C319.912 140.19 320.664 139.95 321.4 139.79V140.87C320.936 140.982 320.432 141.134 319.888 141.326C319.36 141.518 318.848 141.734 318.352 141.974C317.872 142.198 317.472 142.43 317.152 142.67V151.406H315.832ZM326.624 151.646C325.904 151.646 325.24 151.534 324.632 151.31C324.04 151.086 323.56 150.734 323.192 150.254C322.84 149.758 322.664 149.134 322.664 148.382C322.664 147.374 322.984 146.558 323.624 145.934C324.264 145.294 325.352 144.974 326.888 144.974H331.136V143.894C331.136 143.174 331.04 142.598 330.848 142.166C330.656 141.718 330.304 141.398 329.792 141.206C329.296 141.014 328.56 140.918 327.584 140.918C326.928 140.918 326.296 140.974 325.688 141.086C325.08 141.198 324.504 141.35 323.96 141.542V140.414C324.456 140.222 325.032 140.07 325.688 139.958C326.36 139.846 327.072 139.79 327.824 139.79C329.392 139.79 330.544 140.11 331.28 140.75C332.032 141.374 332.408 142.414 332.408 143.87V151.406H331.328L331.208 149.99C330.68 150.55 330.056 150.966 329.336 151.238C328.616 151.51 327.712 151.646 326.624 151.646ZM326.96 150.542C327.872 150.542 328.672 150.398 329.36 150.11C330.048 149.806 330.64 149.358 331.136 148.766V146.03H326.936C325.816 146.03 325.04 146.23 324.608 146.63C324.176 147.03 323.96 147.614 323.96 148.382C323.96 149.166 324.224 149.726 324.752 150.062C325.296 150.382 326.032 150.542 326.96 150.542ZM341.543 151.406V135.95H351.647V137.03H342.863V143.15H350.807V144.206H342.863V150.35H351.647V151.406H341.543ZM353.198 151.406L357.494 145.622L353.318 140.03H354.758L358.19 144.71L361.646 140.03H363.062L358.958 145.622L363.23 151.406H361.79L358.19 146.51L354.614 151.406H353.198ZM369.456 151.646C368.448 151.646 367.672 151.366 367.128 150.806C366.584 150.246 366.312 149.462 366.312 148.454V141.134H364.536V140.03H366.312V137.054L367.632 136.622V140.03H370.92L370.848 141.134H367.632V148.406C367.632 149.142 367.8 149.686 368.136 150.038C368.488 150.39 369.056 150.566 369.84 150.566C370.048 150.566 370.264 150.55 370.488 150.518C370.728 150.47 370.984 150.398 371.256 150.302V151.358C370.728 151.55 370.128 151.646 369.456 151.646ZM373.769 151.406V140.03H374.921L375.065 141.614C375.657 141.198 376.329 140.83 377.081 140.51C377.849 140.19 378.601 139.95 379.337 139.79V140.87C378.873 140.982 378.369 141.134 377.825 141.326C377.297 141.518 376.785 141.734 376.289 141.974C375.809 142.198 375.409 142.43 375.089 142.67V151.406H373.769ZM384.562 151.646C383.842 151.646 383.178 151.534 382.57 151.31C381.978 151.086 381.498 150.734 381.13 150.254C380.778 149.758 380.602 149.134 380.602 148.382C380.602 147.374 380.922 146.558 381.562 145.934C382.202 145.294 383.29 144.974 384.826 144.974H389.074V143.894C389.074 143.174 388.978 142.598 388.786 142.166C388.594 141.718 388.242 141.398 387.73 141.206C387.234 141.014 386.498 140.918 385.522 140.918C384.866 140.918 384.234 140.974 383.626 141.086C383.018 141.198 382.442 141.35 381.898 141.542V140.414C382.394 140.222 382.97 140.07 383.626 139.958C384.298 139.846 385.01 139.79 385.762 139.79C387.33 139.79 388.482 140.11 389.218 140.75C389.97 141.374 390.346 142.414 390.346 143.87V151.406H389.266L389.146 149.99C388.618 150.55 387.994 150.966 387.274 151.238C386.554 151.51 385.65 151.646 384.562 151.646ZM384.898 150.542C385.81 150.542 386.61 150.398 387.298 150.11C387.986 149.806 388.578 149.358 389.074 148.766V146.03H384.874C383.754 146.03 382.978 146.23 382.546 146.63C382.114 147.03 381.898 147.614 381.898 148.382C381.898 149.166 382.162 149.726 382.69 150.062C383.234 150.382 383.97 150.542 384.898 150.542Z" fill="black"/>
<path d="M835.422 150.406V134.95H841.878C843.494 134.95 844.662 135.366 845.382 136.198C846.118 137.03 846.486 138.15 846.486 139.558C846.486 140.742 846.198 141.71 845.622 142.462C845.062 143.214 844.214 143.702 843.078 143.926C843.446 144.102 843.71 144.318 843.87 144.574C844.046 144.83 844.23 145.166 844.422 145.582L846.486 150.406H845.142L843.102 145.75C842.942 145.382 842.766 145.086 842.574 144.862C842.382 144.638 842.118 144.478 841.782 144.382C841.446 144.27 840.974 144.214 840.366 144.214H836.742V150.406H835.422ZM836.742 143.158H841.494C842.63 143.158 843.526 142.878 844.182 142.318C844.838 141.742 845.166 140.822 845.166 139.558C845.166 137.206 844.038 136.03 841.782 136.03H836.742V143.158ZM853.897 152.47V150.646C852.089 150.63 850.633 150.406 849.529 149.974V148.798C850.825 149.278 852.281 149.518 853.897 149.518V143.038C853.881 143.038 853.865 143.038 853.849 143.038C853.849 143.022 853.849 143.014 853.849 143.014C852.105 142.614 850.881 142.094 850.177 141.454C849.489 140.814 849.145 139.95 849.145 138.862C849.145 137.71 849.529 136.766 850.297 136.03C851.081 135.278 852.281 134.846 853.897 134.734V132.886H855.001V134.71C855.801 134.726 856.545 134.798 857.233 134.926C857.937 135.038 858.473 135.158 858.841 135.286V136.462C857.689 136.062 856.409 135.862 855.001 135.862V142.102C856.217 142.39 857.169 142.742 857.857 143.158C858.545 143.558 859.033 144.03 859.321 144.574C859.625 145.118 859.777 145.75 859.777 146.47C859.777 147.734 859.369 148.71 858.553 149.398C857.753 150.086 856.569 150.486 855.001 150.598V152.47H853.897ZM853.897 141.838V135.91C852.777 136.022 851.921 136.318 851.329 136.798C850.737 137.262 850.441 137.95 850.441 138.862C850.441 139.39 850.545 139.838 850.753 140.206C850.961 140.558 851.313 140.862 851.809 141.118C852.321 141.358 853.017 141.598 853.897 141.838ZM855.001 149.494C856.137 149.398 857.001 149.11 857.593 148.63C858.185 148.15 858.481 147.43 858.481 146.47C858.481 145.606 858.209 144.942 857.665 144.478C857.121 144.014 856.233 143.622 855.001 143.302V149.494ZM924.319 150.646C922.543 150.646 921.191 150.19 920.263 149.278C919.351 148.366 918.895 146.894 918.895 144.862V141.046C918.895 139.766 919.135 138.654 919.615 137.71C920.095 136.75 920.775 136.014 921.655 135.502C922.551 134.974 923.607 134.71 924.823 134.71C925.543 134.71 926.183 134.758 926.743 134.854C927.319 134.934 927.831 135.046 928.279 135.19V136.342C927.831 136.182 927.327 136.062 926.767 135.982C926.207 135.902 925.575 135.862 924.871 135.862C923.271 135.862 922.087 136.326 921.319 137.254C920.551 138.182 920.167 139.374 920.167 140.83V142.222C920.855 141.71 921.599 141.342 922.399 141.118C923.199 140.878 923.919 140.758 924.559 140.758C926.287 140.758 927.575 141.182 928.423 142.03C929.287 142.862 929.719 144.078 929.719 145.678C929.719 147.182 929.263 148.39 928.351 149.302C927.455 150.198 926.111 150.646 924.319 150.646ZM924.295 149.566C925.703 149.566 926.751 149.214 927.439 148.51C928.127 147.806 928.471 146.87 928.471 145.702C928.471 144.902 928.351 144.214 928.111 143.638C927.871 143.046 927.455 142.598 926.863 142.294C926.287 141.974 925.479 141.814 924.439 141.814C923.655 141.814 922.887 141.958 922.135 142.246C921.383 142.518 920.727 142.862 920.167 143.278V145.366C920.167 148.166 921.543 149.566 924.295 149.566ZM938.708 150.646C937.22 150.646 936.004 150.334 935.06 149.71C934.132 149.07 933.444 148.174 932.996 147.022C932.564 145.87 932.348 144.518 932.348 142.966C932.348 141.238 932.548 139.758 932.948 138.526C933.348 137.294 934.012 136.35 934.94 135.694C935.868 135.038 937.124 134.71 938.708 134.71C940.292 134.71 941.54 135.038 942.452 135.694C943.38 136.35 944.044 137.294 944.444 138.526C944.844 139.758 945.044 141.238 945.044 142.966C945.044 144.518 944.828 145.87 944.396 147.022C943.964 148.174 943.276 149.07 942.332 149.71C941.404 150.334 940.196 150.646 938.708 150.646ZM938.708 149.518C939.94 149.518 940.924 149.238 941.66 148.678C942.396 148.102 942.924 147.326 943.244 146.35C943.58 145.358 943.748 144.23 943.748 142.966C943.748 141.446 943.588 140.158 943.268 139.102C942.964 138.046 942.444 137.246 941.708 136.702C940.972 136.142 939.972 135.862 938.708 135.862C937.428 135.862 936.42 136.142 935.684 136.702C934.948 137.246 934.42 138.046 934.1 139.102C933.796 140.158 933.644 141.446 933.644 142.966C933.644 144.23 933.804 145.358 934.124 146.35C934.46 147.326 934.996 148.102 935.732 148.678C936.484 149.238 937.476 149.518 938.708 149.518ZM946.106 153.286L946.73 149.326H948.002L947.09 153.286H946.106ZM954.565 150.646C953.845 150.646 953.117 150.582 952.381 150.454C951.661 150.342 951.085 150.206 950.653 150.046V148.87C951.245 149.078 951.845 149.238 952.453 149.35C953.077 149.462 953.741 149.518 954.445 149.518C955.933 149.518 957.037 149.262 957.757 148.75C958.493 148.222 958.861 147.382 958.861 146.23C958.861 145.142 958.509 144.35 957.805 143.854C957.117 143.342 956.157 143.086 954.925 143.086H952.813L952.957 142.054H954.733C956.013 142.054 956.957 141.766 957.565 141.19C958.189 140.614 958.501 139.814 958.501 138.79C958.501 137.798 958.181 137.062 957.541 136.582C956.917 136.102 955.917 135.862 954.541 135.862C953.901 135.862 953.269 135.926 952.645 136.054C952.021 136.166 951.453 136.318 950.941 136.51V135.334C951.357 135.158 951.909 135.014 952.597 134.902C953.285 134.774 953.973 134.71 954.661 134.71C956.453 134.71 957.757 135.094 958.573 135.862C959.389 136.614 959.797 137.59 959.797 138.79C959.797 139.59 959.581 140.358 959.149 141.094C958.717 141.814 958.005 142.294 957.013 142.534C958.133 142.758 958.933 143.214 959.413 143.902C959.909 144.59 960.157 145.366 960.157 146.23C960.157 147.702 959.661 148.806 958.669 149.542C957.677 150.278 956.309 150.646 954.565 150.646ZM969.153 150.646C967.665 150.646 966.449 150.334 965.505 149.71C964.577 149.07 963.889 148.174 963.441 147.022C963.009 145.87 962.793 144.518 962.793 142.966C962.793 141.238 962.993 139.758 963.393 138.526C963.793 137.294 964.457 136.35 965.385 135.694C966.313 135.038 967.569 134.71 969.153 134.71C970.737 134.71 971.985 135.038 972.897 135.694C973.825 136.35 974.489 137.294 974.889 138.526C975.289 139.758 975.489 141.238 975.489 142.966C975.489 144.518 975.273 145.87 974.841 147.022C974.409 148.174 973.721 149.07 972.777 149.71C971.849 150.334 970.641 150.646 969.153 150.646ZM969.153 149.518C970.385 149.518 971.369 149.238 972.105 148.678C972.841 148.102 973.369 147.326 973.689 146.35C974.025 145.358 974.193 144.23 974.193 142.966C974.193 141.446 974.033 140.158 973.713 139.102C973.409 138.046 972.889 137.246 972.153 136.702C971.417 136.142 970.417 135.862 969.153 135.862C967.873 135.862 966.865 136.142 966.129 136.702C965.393 137.246 964.865 138.046 964.545 139.102C964.241 140.158 964.089 141.446 964.089 142.966C964.089 144.23 964.249 145.358 964.569 146.35C964.905 147.326 965.441 148.102 966.177 148.678C966.929 149.238 967.921 149.518 969.153 149.518Z" fill="#94C7B6"/>
<path d="M72.2734 92.8784V90.7184H90.1294V92.8784H72.2734Z" fill="#FF6666"/>
<path d="M72.3119 203.373V201.213H90.1679V203.373H72.3119Z" fill="#FF6666"/>
<path d="M306.82 260.673V245.217H308.068L317.644 258.705V245.217H318.964V260.673H317.692L308.14 247.209V260.673H306.82ZM327.97 260.913C325.922 260.913 324.426 260.433 323.482 259.473C322.554 258.497 322.09 256.977 322.09 254.913C322.09 253.089 322.498 251.657 323.314 250.617C324.146 249.577 325.49 249.057 327.346 249.057C328.45 249.057 329.346 249.265 330.034 249.681C330.722 250.081 331.226 250.625 331.546 251.313C331.882 252.001 332.05 252.769 332.05 253.617V255.681H323.41C323.474 257.153 323.858 258.217 324.562 258.873C325.266 259.513 326.49 259.833 328.234 259.833C329.29 259.833 330.314 259.633 331.306 259.233V260.313C330.33 260.713 329.218 260.913 327.97 260.913ZM323.41 254.649H330.85V253.569C330.85 252.513 330.578 251.681 330.034 251.073C329.49 250.465 328.602 250.161 327.37 250.161C325.866 250.161 324.826 250.553 324.25 251.337C323.69 252.105 323.41 253.209 323.41 254.649ZM339.374 260.913C338.366 260.913 337.59 260.633 337.046 260.073C336.502 259.513 336.23 258.729 336.23 257.721V250.401H334.454V249.297H336.23V246.321L337.55 245.889V249.297H340.838L340.766 250.401H337.55V257.673C337.55 258.409 337.718 258.953 338.054 259.305C338.406 259.657 338.974 259.833 339.758 259.833C339.966 259.833 340.182 259.817 340.406 259.785C340.646 259.737 340.902 259.665 341.174 259.569V260.625C340.646 260.817 340.046 260.913 339.374 260.913ZM344.479 260.673V250.401H342.727V249.297H344.479V247.641C344.479 246.505 344.839 245.617 345.559 244.977C346.295 244.321 347.247 243.993 348.415 243.993C348.927 243.993 349.391 244.033 349.807 244.113C350.239 244.177 350.607 244.265 350.911 244.377H351.943V260.673H350.623V250.401H345.799V260.673H344.479ZM345.799 249.297H350.623V245.433C350.095 245.209 349.471 245.097 348.751 245.097C346.783 245.097 345.799 245.937 345.799 247.617V249.297ZM356.915 246.345V244.905H358.427V246.345H356.915ZM357.083 260.673V250.401H355.307L355.451 249.297H358.403V260.673H357.083ZM361.295 260.673L365.591 254.889L361.415 249.297H362.855L366.287 253.977L369.743 249.297H371.159L367.055 254.889L371.327 260.673H369.887L366.287 255.777L362.711 260.673H361.295Z" fill="black"/>
<path d="M835.574 259.673V244.217H842.03C843.646 244.217 844.814 244.633 845.534 245.465C846.27 246.297 846.638 247.417 846.638 248.825C846.638 250.009 846.35 250.977 845.774 251.729C845.214 252.481 844.366 252.969 843.23 253.193C843.598 253.369 843.862 253.585 844.022 253.841C844.198 254.097 844.382 254.433 844.574 254.849L846.638 259.673H845.294L843.254 255.017C843.094 254.649 842.918 254.353 842.726 254.129C842.534 253.905 842.27 253.745 841.934 253.649C841.598 253.537 841.126 253.481 840.518 253.481H836.894V259.673H835.574ZM836.894 252.425H841.646C842.782 252.425 843.678 252.145 844.334 251.585C844.99 251.009 845.318 250.089 845.318 248.825C845.318 246.473 844.19 245.297 841.934 245.297H836.894V252.425ZM854.049 261.737V259.913C852.241 259.897 850.785 259.673 849.681 259.241V258.065C850.977 258.545 852.433 258.785 854.049 258.785V252.305C854.033 252.305 854.017 252.305 854.001 252.305C854.001 252.289 854.001 252.281 854.001 252.281C852.257 251.881 851.033 251.361 850.329 250.721C849.641 250.081 849.297 249.217 849.297 248.129C849.297 246.977 849.681 246.033 850.449 245.297C851.233 244.545 852.433 244.113 854.049 244.001V242.153H855.153V243.977C855.953 243.993 856.697 244.065 857.385 244.193C858.089 244.305 858.625 244.425 858.993 244.553V245.729C857.841 245.329 856.561 245.129 855.153 245.129V251.369C856.369 251.657 857.321 252.009 858.009 252.425C858.697 252.825 859.185 253.297 859.473 253.841C859.777 254.385 859.929 255.017 859.929 255.737C859.929 257.001 859.521 257.977 858.705 258.665C857.905 259.353 856.721 259.753 855.153 259.865V261.737H854.049ZM854.049 251.105V245.177C852.929 245.289 852.073 245.585 851.481 246.065C850.889 246.529 850.593 247.217 850.593 248.129C850.593 248.657 850.697 249.105 850.905 249.473C851.113 249.825 851.465 250.129 851.961 250.385C852.473 250.625 853.169 250.865 854.049 251.105ZM855.153 258.761C856.289 258.665 857.153 258.377 857.745 257.897C858.337 257.417 858.633 256.697 858.633 255.737C858.633 254.873 858.361 254.209 857.817 253.745C857.273 253.281 856.385 252.889 855.153 252.569V258.761ZM922.959 259.913C922.239 259.913 921.511 259.849 920.775 259.721C920.055 259.609 919.479 259.473 919.047 259.313V258.137C919.639 258.345 920.239 258.505 920.847 258.617C921.471 258.729 922.135 258.785 922.839 258.785C924.327 258.785 925.431 258.529 926.151 258.017C926.887 257.489 927.255 256.649 927.255 255.497C927.255 254.409 926.903 253.617 926.199 253.121C925.511 252.609 924.551 252.353 923.319 252.353H921.207L921.351 251.321H923.127C924.407 251.321 925.351 251.033 925.959 250.457C926.583 249.881 926.895 249.081 926.895 248.057C926.895 247.065 926.575 246.329 925.935 245.849C925.311 245.369 924.311 245.129 922.935 245.129C922.295 245.129 921.663 245.193 921.039 245.321C920.415 245.433 919.847 245.585 919.335 245.777V244.601C919.751 244.425 920.303 244.281 920.991 244.169C921.679 244.041 922.367 243.977 923.055 243.977C924.847 243.977 926.151 244.361 926.967 245.129C927.783 245.881 928.191 246.857 928.191 248.057C928.191 248.857 927.975 249.625 927.543 250.361C927.111 251.081 926.399 251.561 925.407 251.801C926.527 252.025 927.327 252.481 927.807 253.169C928.303 253.857 928.551 254.633 928.551 255.497C928.551 256.969 928.055 258.073 927.063 258.809C926.071 259.545 924.703 259.913 922.959 259.913ZM936.132 259.913C935.412 259.913 934.756 259.873 934.164 259.793C933.572 259.713 933.06 259.601 932.628 259.457V258.281C933.524 258.617 934.676 258.785 936.084 258.785C937.156 258.785 938.036 258.569 938.724 258.137C939.412 257.705 939.916 257.121 940.236 256.385C940.572 255.633 940.74 254.777 940.74 253.817V252.473C940.052 252.985 939.324 253.361 938.556 253.601C937.804 253.825 937.076 253.937 936.372 253.937C934.644 253.937 933.348 253.521 932.484 252.689C931.62 251.841 931.188 250.617 931.188 249.017C931.188 247.513 931.644 246.297 932.556 245.369C933.468 244.441 934.828 243.977 936.636 243.977C938.412 243.977 939.748 244.433 940.644 245.345C941.556 246.257 942.012 247.737 942.012 249.785V253.577C942.012 254.857 941.772 255.977 941.292 256.937C940.828 257.881 940.156 258.617 939.276 259.145C938.396 259.657 937.348 259.913 936.132 259.913ZM936.492 252.881C937.324 252.881 938.1 252.745 938.82 252.473C939.54 252.201 940.18 251.849 940.74 251.417V249.257C940.74 246.457 939.38 245.057 936.66 245.057C935.236 245.057 934.164 245.417 933.444 246.137C932.74 246.857 932.388 247.809 932.388 248.993C932.388 250.193 932.684 251.145 933.276 251.849C933.868 252.537 934.94 252.881 936.492 252.881ZM944.641 262.553L945.265 258.593H946.537L945.625 262.553H944.641ZM954.132 259.913C953.412 259.913 952.756 259.873 952.164 259.793C951.572 259.713 951.06 259.601 950.628 259.457V258.281C951.524 258.617 952.676 258.785 954.084 258.785C955.156 258.785 956.036 258.569 956.724 258.137C957.412 257.705 957.916 257.121 958.236 256.385C958.572 255.633 958.74 254.777 958.74 253.817V252.473C958.052 252.985 957.324 253.361 956.556 253.601C955.804 253.825 955.076 253.937 954.372 253.937C952.644 253.937 951.348 253.521 950.484 252.689C949.62 251.841 949.188 250.617 949.188 249.017C949.188 247.513 949.644 246.297 950.556 245.369C951.468 244.441 952.828 243.977 954.636 243.977C956.412 243.977 957.748 244.433 958.644 245.345C959.556 246.257 960.012 247.737 960.012 249.785V253.577C960.012 254.857 959.772 255.977 959.292 256.937C958.828 257.881 958.156 258.617 957.276 259.145C956.396 259.657 955.348 259.913 954.132 259.913ZM954.492 252.881C955.324 252.881 956.1 252.745 956.82 252.473C957.54 252.201 958.18 251.849 958.74 251.417V249.257C958.74 246.457 957.38 245.057 954.66 245.057C953.236 245.057 952.164 245.417 951.444 246.137C950.74 246.857 950.388 247.809 950.388 248.993C950.388 250.193 950.684 251.145 951.276 251.849C951.868 252.537 952.94 252.881 954.492 252.881ZM969.001 259.913C967.513 259.913 966.297 259.601 965.353 258.977C964.425 258.337 963.737 257.441 963.289 256.289C962.857 255.137 962.641 253.785 962.641 252.233C962.641 250.505 962.841 249.025 963.241 247.793C963.641 246.561 964.305 245.617 965.233 244.961C966.161 244.305 967.417 243.977 969.001 243.977C970.585 243.977 971.833 244.305 972.745 244.961C973.673 245.617 974.337 246.561 974.737 247.793C975.137 249.025 975.337 250.505 975.337 252.233C975.337 253.785 975.121 255.137 974.689 256.289C974.257 257.441 973.569 258.337 972.625 258.977C971.697 259.601 970.489 259.913 969.001 259.913ZM969.001 258.785C970.233 258.785 971.217 258.505 971.953 257.945C972.689 257.369 973.217 256.593 973.537 255.617C973.873 254.625 974.041 253.497 974.041 252.233C974.041 250.713 973.881 249.425 973.561 248.369C973.257 247.313 972.737 246.513 972.001 245.969C971.265 245.409 970.265 245.129 969.001 245.129C967.721 245.129 966.713 245.409 965.977 245.969C965.241 246.513 964.713 247.313 964.393 248.369C964.089 249.425 963.937 250.713 963.937 252.233C963.937 253.497 964.097 254.625 964.417 255.617C964.753 256.593 965.289 257.369 966.025 257.945C966.777 258.505 967.769 258.785 969.001 258.785Z" fill="#FF6666"/>
<path d="M80.0494 154.208V146.72H72.2734V144.56H80.0494V136.784H82.3054V144.56H90.1294V146.72H82.3054V154.208H80.0494Z" fill="#94C7B6"/>
</g>
<defs>
<filter id="filter0_i_111_587" x="0" y="0" width="1133" height="248" filterUnits="userSpaceOnUse" color-interpolation-filters="sRGB">
<feFlood flood-opacity="0" result="BackgroundImageFix"/>
<feBlend mode="normal" in="SourceGraphic" in2="BackgroundImageFix" result="shape"/>
<feColorMatrix in="SourceAlpha" type="matrix" values="0 0 0 0 0 0 0 0 0 0 0 0 0 0 0 0 0 0 127 0" result="hardAlpha"/>
<feOffset/>
<feGaussianBlur stdDeviation="5.3"/>
<feComposite in2="hardAlpha" operator="arithmetic" k2="-1" k3="1"/>
<feColorMatrix type="matrix" values="0 0 0 0 0 0 0 0 0 0 0 0 0 0 0 0 0 0 0.25 0"/>
<feBlend mode="normal" in2="shape" result="effect1_innerShadow_111_587"/>
</filter>
<filter id="filter1_d_111_587" x="-9.96155" y="-2" width="1148.96" height="70.9307" filterUnits="userSpaceOnUse" color-interpolation-filters="sRGB">
<feFlood flood-opacity="0" result="BackgroundImageFix"/>
<feColorMatrix in="SourceAlpha" type="matrix" values="0 0 0 0 0 0 0 0 0 0 0 0 0 0 0 0 0 0 127 0" result="hardAlpha"/>
<feOffset dy="4"/>
<feGaussianBlur stdDeviation="3"/>
<feComposite in2="hardAlpha" operator="out"/>
<feColorMatrix type="matrix" values="0 0 0 0 0 0 0 0 0 0 0 0 0 0 0 0 0 0 0.25 0"/>
<feBlend mode="normal" in2="BackgroundImageFix" result="effect1_dropShadow_111_587"/>
<feBlend mode="normal" in="SourceGraphic" in2="effect1_dropShadow_111_587" result="shape"/>
</filter>
<filter id="filter2_d_111_587" x="510.107" y="20.528" width="109.294" height="25.712" filterUnits="userSpaceOnUse" color-interpolation-filters="sRGB">
<feFlood flood-opacity="0" result="BackgroundImageFix"/>
<feColorMatrix in="SourceAlpha" type="matrix" values="0 0 0 0 0 0 0 0 0 0 0 0 0 0 0 0 0 0 127 0" result="hardAlpha"/>
<feOffset dy="4"/>
<feGaussianBlur stdDeviation="2"/>
<feComposite in2="hardAlpha" operator="out"/>
<feColorMatrix type="matrix" values="0 0 0 0 0 0 0 0 0 0 0 0 0 0 0 0 0 0 0.25 0"/>
<feBlend mode="normal" in2="BackgroundImageFix" result="effect1_dropShadow_111_587"/>
<feBlend mode="normal" in="SourceGraphic" in2="effect1_dropShadow_111_587" result="shape"/>
</filter>
</defs>
</svg>
